<svg id="Grupo_1" data-name="Grupo 1" xmlns="http://www.w3.org/2000/svg" width="132.96" height="39.648" viewBox="0 0 132.96 39.648">
  <path id="Trazado_1" data-name="Trazado 1" d="M834.716,24.839c.022.356.023.656.063.95a5.548,5.548,0,0,0,.719,2.052c1.113,1.916,2.216,3.837,3.326,5.755a7.944,7.944,0,0,1,1.039,2.283,3.062,3.062,0,0,0,.2-.288,5.223,5.223,0,0,0-.1-5.231c-.968-1.713-1.964-3.411-2.95-5.114a5.756,5.756,0,0,1-.674-1.7,5.278,5.278,0,0,1,.6-3.773,2.3,2.3,0,0,1,.2-.251,10.665,10.665,0,0,0,1.483,3.1c1.071,1.88,2.162,3.748,3.242,5.622a7.574,7.574,0,0,1,1.055,2.33,3,3,0,0,0,.208-.293,5.158,5.158,0,0,0-.042-5.125c-.947-1.71-1.94-3.395-2.928-5.081A5.839,5.839,0,0,1,839.3,17.5a5.316,5.316,0,0,1,.762-3.14.727.727,0,0,1,.127-.121c.038.109.063.195.1.277a13.177,13.177,0,0,0,.6,1.394q1.705,3.011,3.458,5.995a6.11,6.11,0,0,1,.995,2.91c.114.04.219.083.328.115a14.215,14.215,0,0,1,3.613,1.552,7.457,7.457,0,0,1,2.168,1.948,4.069,4.069,0,0,1,.832,2.475,3.991,3.991,0,0,1-.679,2.131,7.148,7.148,0,0,1-2.29,2.152A14.681,14.681,0,0,1,844.719,37a21.393,21.393,0,0,1-6.294.451,17.8,17.8,0,0,1-6.555-1.63,9.633,9.633,0,0,1-2.578-1.747,5.488,5.488,0,0,1-1.006-1.291,3.789,3.789,0,0,1-.014-3.844,5.686,5.686,0,0,1,1.285-1.563,11.369,11.369,0,0,1,3.875-2.14c.414-.143.836-.26,1.284-.4" transform="translate(-827.755 -14.243)" fill="#676767"/>
  <path id="Trazado_2" data-name="Trazado 2" d="M1415.1,65.728a3.8,3.8,0,0,1-3.29,1.562,4.669,4.669,0,0,1-4.6-3.222,8.293,8.293,0,0,1-.436-3.579,9.437,9.437,0,0,1,.249-1.539,5.069,5.069,0,0,1,4.01-3.882,9.065,9.065,0,0,1,3.646-.115c.1.017.2.016.35.028V51.248a6.591,6.591,0,0,1,2.547-.345V66.992c-.771.061-1.53.026-2.331.022-.051-.449-.1-.867-.146-1.286m-.061-8.459a7.768,7.768,0,0,0-2.832-.16,3.044,3.044,0,0,0-2.493,1.992,5.328,5.328,0,0,0-.336,1.716,5.73,5.73,0,0,0,.428,2.711,2.582,2.582,0,0,0,1.922,1.559,4.025,4.025,0,0,0,3-.54.608.608,0,0,0,.322-.6c-.012-2.1-.006-4.193-.006-6.289Z" transform="translate(-1306.19 -44.531)" fill="#676767"/>
  <path id="Trazado_3" data-name="Trazado 3" d="M1005.282,50.383a7.339,7.339,0,0,1-.45,2.313c-.13-.034-.241-.058-.348-.092a11.389,11.389,0,0,0-3.77-.542,4.164,4.164,0,0,0-1.374.266,1.827,1.827,0,0,0-.771,2.9,3.268,3.268,0,0,0,.825.706c.575.327,1.185.594,1.785.877.694.328,1.411.612,2.083.979a8.172,8.172,0,0,1,1.438,1,3.963,3.963,0,0,1,1.308,3.634,4.127,4.127,0,0,1-3.255,3.624,7.979,7.979,0,0,1-2.155.334,13.1,13.1,0,0,1-3.949-.4c-.362-.1-.711-.251-1.068-.372a.277.277,0,0,1-.2-.328,7.272,7.272,0,0,1,.434-2.086c.106.031.2.052.293.088a10.213,10.213,0,0,0,4.782.717,4.682,4.682,0,0,0,1.319-.322,1.848,1.848,0,0,0,.684-2.954,3.415,3.415,0,0,0-.9-.734c-.635-.354-1.3-.652-1.96-.964-.623-.3-1.265-.554-1.872-.879a7,7,0,0,1-1.191-.812,3.884,3.884,0,0,1-1.439-3.044,6.241,6.241,0,0,1,.127-1.434,3.578,3.578,0,0,1,1.929-2.43,6.064,6.064,0,0,1,2.2-.645,12.774,12.774,0,0,1,5.063.453c.136.04.268.09.438.148" transform="translate(-966.267 -43.545)" fill="#676767"/>
  <path id="Trazado_4" data-name="Trazado 4" d="M1491.531,80.829h-8.048a3.155,3.155,0,0,0,1.852,2.655,4.224,4.224,0,0,0,1.481.314,9.819,9.819,0,0,0,4.123-.719c.092-.037.188-.062.347-.114-.085.552-.153,1.05-.241,1.545-.145.81-.149.815-.936,1.07a9.2,9.2,0,0,1-3.974.371,8.594,8.594,0,0,1-1.712-.36,4.861,4.861,0,0,1-3.287-3.581,8.918,8.918,0,0,1,.045-4.75,4.812,4.812,0,0,1,4.388-3.65,7.129,7.129,0,0,1,2.484.121,4.369,4.369,0,0,1,3.34,3.123,8.991,8.991,0,0,1,.138,3.974m-2.487-2.2a2.57,2.57,0,0,0-2.649-2.917,2.728,2.728,0,0,0-2.907,2.917Z" transform="translate(-1367.415 -63.255)" fill="#676767"/>
  <path id="Trazado_5" data-name="Trazado 5" d="M1076.416,74.182v11.5c-.774.076-1.535.026-2.341.031l-.156-1.257a1.667,1.667,0,0,0-.157.153,3.472,3.472,0,0,1-2.581,1.361,5.231,5.231,0,0,1-2.2-.251,4.568,4.568,0,0,1-2.819-2.745,8.438,8.438,0,0,1-.5-4.033,7.979,7.979,0,0,1,.227-1.306,5.107,5.107,0,0,1,4.024-3.874,9.576,9.576,0,0,1,2.561-.233,13,13,0,0,1,3.542.525c.123.039.245.081.4.132m-2.571,1.721a1.262,1.262,0,0,0-.223-.075,9.158,9.158,0,0,0-2.414-.03,3.17,3.17,0,0,0-2.733,2.352,6.219,6.219,0,0,0-.21,2.4,4.859,4.859,0,0,0,.438,1.733,2.573,2.573,0,0,0,1.772,1.472,3.987,3.987,0,0,0,3.047-.469.6.6,0,0,0,.329-.594c-.011-2.137-.006-4.275-.006-6.412Z" transform="translate(-1024.308 -63.225)" fill="#676767"/>
  <path id="Trazado_6" data-name="Trazado 6" d="M1269.427,74.171V85.621a8.433,8.433,0,0,1-2.345.021l-.139-1.193a1.421,1.421,0,0,0-.161.146,3.457,3.457,0,0,1-2.578,1.364,5.237,5.237,0,0,1-2.2-.25,4.589,4.589,0,0,1-2.85-2.815,8.3,8.3,0,0,1-.51-3.453,7.851,7.851,0,0,1,.372-2.189,5.112,5.112,0,0,1,3.953-3.508,10.38,10.38,0,0,1,2.991-.209,12.225,12.225,0,0,1,3.074.508l.39.129m-2.559,1.729a1.455,1.455,0,0,0-.243-.082,9.023,9.023,0,0,0-2.413-.025,3.154,3.154,0,0,0-2.684,2.251,6.6,6.6,0,0,0-.186,2.937,4.02,4.02,0,0,0,.441,1.408,2.543,2.543,0,0,0,1.723,1.359,4,4,0,0,0,2.976-.436.687.687,0,0,0,.393-.681c-.014-2.1-.007-4.193-.007-6.29Z" transform="translate(-1183.806 -63.217)" fill="#676767"/>
  <path id="Trazado_7" data-name="Trazado 7" d="M1339.008,75.944v9.784c-.874.017-1.7.016-2.516,0-.083-.324-.111-10.9-.034-11.535.319-.071.656-.153,1-.22a18.2,18.2,0,0,1,3.955-.424,8.962,8.962,0,0,1,2.618.395,3.537,3.537,0,0,1,2.593,3.355q.041.624.042,1.25.006,3.306,0,6.611v.488a9.808,9.808,0,0,1-2.582.014v-.453c0-2.217,0-4.433,0-6.65a6.99,6.99,0,0,0-.081-1.089,1.726,1.726,0,0,0-1.274-1.483,5.374,5.374,0,0,0-1.031-.205,9.959,9.959,0,0,0-2.684.163" transform="translate(-1248.074 -63.246)" fill="#676767"/>
  <path id="Trazado_8" data-name="Trazado 8" d="M1143.541,74.194c.861-.152,1.715-.336,2.578-.444a20.8,20.8,0,0,1,2.336-.154,8.427,8.427,0,0,1,2.356.306,3.625,3.625,0,0,1,2.881,3.582c.019.338.015.677.015,1.016q0,3.383,0,6.765v.486h-2.546c-.009-.165-.026-.328-.026-.492,0-2.177,0-4.354-.006-6.53a8.019,8.019,0,0,0-.109-1.32,1.707,1.707,0,0,0-1.27-1.4,6.394,6.394,0,0,0-2.361-.2c-.427.027-.852.1-1.324.151-.006.164-.018.315-.018.466q0,4.419,0,8.838v.483h-2.492c-.086-.3-.108-11.021-.016-11.559" transform="translate(-1088.65 -63.287)" fill="#676767"/>
  <path id="Trazado_9" data-name="Trazado 9" d="M1216.639,51.28a7.259,7.259,0,0,1,2.572-.369c.033.481.012.946.016,1.409,0,.482,0,.965,0,1.447v1.459h4.012l-.233,2.2h-3.74a3.144,3.144,0,0,0-.038.327q0,2.7,0,5.4a2.752,2.752,0,0,0,.051.543,1.581,1.581,0,0,0,1.632,1.387,5.558,5.558,0,0,0,1.853-.219c.108-.032.22-.052.374-.087-.03.318-.05.6-.086.881-.042.323-.1.643-.145.966a.438.438,0,0,1-.347.41,6.607,6.607,0,0,1-2.629.226,5.348,5.348,0,0,1-.767-.139,3.176,3.176,0,0,1-2.456-2.857,9.606,9.606,0,0,1-.07-1.13q-.007-5.69,0-11.379V51.28" transform="translate(-1149.102 -44.541)" fill="#676767"/>
  <path id="Trazado_10" data-name="Trazado 10" d="M1562.065,73.631a5.361,5.361,0,0,1-.239,2.189,14.754,14.754,0,0,0-3.716.072v9.762a12.3,12.3,0,0,1-2.519.019c-.081-.3-.1-11.063-.008-11.506a16.71,16.71,0,0,1,6.483-.536" transform="translate(-1429.132 -63.235)" fill="#676767"/>
  <path id="Trazado_11" data-name="Trazado 11" d="M1438.146,201.858h-1.113c-.007-.164-.019-.315-.02-.465,0-1.5,0-3,0-4.5a4.52,4.52,0,0,0-.072-.815,1.587,1.587,0,0,0-1.217-1.333,4.606,4.606,0,0,0-2.984.3c.026.113.053.2.065.285a9.813,9.813,0,0,1,.159,1.236c.019,1.629.008,3.258.008,4.887v.36a5.189,5.189,0,0,1-1.11.064c-.009-.178-.023-.328-.023-.477,0-1.473,0-2.945,0-4.418a7.33,7.33,0,0,0-.05-.818,1.519,1.519,0,0,0-1.333-1.468,6.345,6.345,0,0,0-2.6.115.684.684,0,0,0-.129.067v6.964h-1.072c-.077-.3-.1-7.3-.015-7.82.486-.1.988-.236,1.5-.295.606-.07,1.22-.091,1.831-.1a3.459,3.459,0,0,1,2.089.573c.683-.185,1.312-.4,1.958-.519a4.956,4.956,0,0,1,2.133.07,2.449,2.449,0,0,1,1.985,2.436c.018.3.013.6.013.9q0,2.151,0,4.3Z" transform="translate(-1322.585 -162.452)" fill="#676767"/>
  <path id="Trazado_12" data-name="Trazado 12" d="M1508.638,198.36h-5.7a2.578,2.578,0,0,0,1.764,2.678,4.816,4.816,0,0,0,3.167-.283c.143-.057.283-.12.453-.193a1.977,1.977,0,0,1-.12.966.38.38,0,0,1-.231.187,8.566,8.566,0,0,1-1.3.4,5.36,5.36,0,0,1-2.212-.065,3.271,3.271,0,0,1-2.484-2.354,6.057,6.057,0,0,1,.017-3.618,3.134,3.134,0,0,1,3.082-2.314,5.484,5.484,0,0,1,1.164.082,2.77,2.77,0,0,1,2.119,1.722,5.677,5.677,0,0,1,.282,2.792m-5.722-1.067a38.548,38.548,0,0,0,4.609-.019,2.178,2.178,0,0,0-1.848-2.516,2.356,2.356,0,0,0-2.761,2.536" transform="translate(-1384.661 -162.584)" fill="#676767"/>
  <path id="Trazado_13" data-name="Trazado 13" d="M1243.76,197.9a6.39,6.39,0,0,1-.38,1.994,3.384,3.384,0,0,1-3.074,2.229,4.518,4.518,0,0,1-1.591-.109,3.283,3.283,0,0,1-2.373-2.279,5.594,5.594,0,0,1,.033-3.647,3.425,3.425,0,0,1,3.218-2.367,4.8,4.8,0,0,1,1.512.126,3.382,3.382,0,0,1,2.487,2.738c.1.429.114.876.168,1.315m-1.153.125c-.047-.431-.06-.785-.128-1.127a2.365,2.365,0,0,0-1.843-2.083,3.82,3.82,0,0,0-1.046-.057,2.231,2.231,0,0,0-2.109,1.584,4.69,4.69,0,0,0,.04,3.288,2.18,2.18,0,0,0,1.642,1.417,3.133,3.133,0,0,0,.619.078,2.386,2.386,0,0,0,2.608-1.83,10.2,10.2,0,0,0,.216-1.268" transform="translate(-1165.145 -162.546)" fill="#676767"/>
  <path id="Trazado_14" data-name="Trazado 14" d="M1195.78,178.086l-.183,1.041c-.219-.055-.379-.094-.539-.135a5.636,5.636,0,0,0-2.82-.073,3.277,3.277,0,0,0-2.372,2.027,5.978,5.978,0,0,0,.04,4.72,3.508,3.508,0,0,0,3.258,2.173,5.85,5.85,0,0,0,2.443-.394,2.031,2.031,0,0,1-.113,1.075c-.024.08-.174.147-.278.176a6.84,6.84,0,0,1-2.4.228,5.436,5.436,0,0,1-1.631-.37,4.334,4.334,0,0,1-2.516-2.682,7.537,7.537,0,0,1-.024-5.063,4.421,4.421,0,0,1,3.957-3.072,7.383,7.383,0,0,1,2.636.165c.173.041.337.114.54.185" transform="translate(-1125.618 -149.299)" fill="#676767"/>
  <path id="Trazado_15" data-name="Trazado 15" d="M1377.243,194.834h1.087c.009.156.023.306.024.456,0,1.473-.006,2.946.006,4.419a5.639,5.639,0,0,0,.11,1.046,1.539,1.539,0,0,0,1.413,1.31,3.181,3.181,0,0,0,2.436-.609.625.625,0,0,0,.277-.557c-.01-1.851-.005-3.7-.005-5.554v-.5h1.063c.088.27.115,7.486.024,8.017h-1.016c-.021-.182-.042-.358-.067-.569a2.163,2.163,0,0,0-.208.121,3.2,3.2,0,0,1-1.855.636,6.277,6.277,0,0,1-1.17-.028,2.317,2.317,0,0,1-2.055-2.051,5.115,5.115,0,0,1-.082-.855c-.008-1.643,0-3.285,0-4.928,0-.1.012-.205.021-.356" transform="translate(-1281.795 -163.471)" fill="#676767"/>
  <path id="Trazado_16" data-name="Trazado 16" d="M1295.832,201.9h-1.087c-.008-.151-.023-.3-.023-.45,0-1.46,0-2.921-.005-4.381a5.775,5.775,0,0,0-.094-1.048,1.565,1.565,0,0,0-1.406-1.276,6.526,6.526,0,0,0-2.56.1,1.09,1.09,0,0,0-.174.076V201.9h-1.067c-.08-.294-.1-7.343-.014-7.815.438-.093.891-.206,1.349-.283a8.251,8.251,0,0,1,2.8-.033,4.133,4.133,0,0,1,.713.2,2.262,2.262,0,0,1,1.51,1.839,4.5,4.5,0,0,1,.074.777c.007,1.669,0,3.338,0,5.006,0,.09-.013.18-.023.319" transform="translate(-1209.184 -162.502)" fill="#676767"/>
  <path id="Trazado_17" data-name="Trazado 17" d="M1335.849,201.51l.152-.989c.18.076.3.129.414.175a5.352,5.352,0,0,0,2.946.351,2.027,2.027,0,0,0,.411-.118,1.133,1.133,0,0,0,.378-1.867,2.544,2.544,0,0,0-.79-.484c-.394-.165-.821-.254-1.219-.409a6.905,6.905,0,0,1-1.164-.538,2.167,2.167,0,0,1-.83-2.583,1.568,1.568,0,0,1,.823-.951,3.91,3.91,0,0,1,1.14-.373,6.732,6.732,0,0,1,3.046.288,1.318,1.318,0,0,1,.151.077,1.658,1.658,0,0,1-.142.892c-.5-.1-.98-.213-1.466-.284a4.439,4.439,0,0,0-1.632.032,1.07,1.07,0,0,0-.946.86,1.123,1.123,0,0,0,.653,1.257,11.164,11.164,0,0,0,1.084.437c.389.148.785.277,1.17.435a3.509,3.509,0,0,1,.582.317,2.076,2.076,0,0,1,.955,2.156,1.939,1.939,0,0,1-1.4,1.665,4.587,4.587,0,0,1-1.1.228,6,6,0,0,1-2.395-.238c-.268-.088-.523-.214-.815-.335" transform="translate(-1247.609 -162.506)" fill="#676767"/>
  <path id="Trazado_18" data-name="Trazado 18" d="M1552.635,202.02h-1.075c-.083-.294-.109-7.256-.028-7.812a9.116,9.116,0,0,1,3.88-.337,1.645,1.645,0,0,1-.1.974,7.627,7.627,0,0,0-2.677.115Z" transform="translate(-1425.794 -162.615)" fill="#676767"/>
</svg>
